<svg xmlns="http://www.w3.org/2000/svg" version="1.1" xmlns:xlink="http://www.w3.org/1999/xlink" xmlns:svgjs="http://svgjs.com/svgjs" height="113.11145935058593" width="259.69012451171875"><defs id="SvgjsDefs2745"></defs><g id="SvgjsG2746" rel="mainfill" name="main_text" xmlns:name="main_text" transform="translate(-0.07000000774860382,-127.56534423828126)" fill="#9768D1"><path d="M24.23 233.51C24.03 231.97 22.69 232.17 20.68 232.10L14.12 232.10C11.91 232.04 11.31 231.37 11.18 229.23C11.11 227.15 11.11 225.34 11.24 223.74C11.38 220.86 12.05 220.53 14.59 220.53C16.53 220.53 18.07 220.53 19.07 220.46C20.01 220.39 20.55 219.92 20.55 218.99C20.68 217.58 20.68 216.18 20.61 214.77C20.55 213.16 20.14 212.69 18.54 212.69C18.07 212.63 17.27 212.63 16.20 212.63C14.12 212.63 12.65 212.69 11.85 211.96C11.51 211.56 11.24 210.89 11.24 210.02C11.11 207.88 11.11 205.67 11.18 203.39C11.31 201.32 11.91 200.65 14.12 200.58L20.75 200.58C22.69 200.58 24.09 200.72 24.23 199.11C24.36 197.57 24.43 194.22 23.82 193.62C23.49 193.35 22.62 193.15 21.08 193.15L6.63 193.15C3.35 193.15 3.28 193.29 3.28 196.63L3.28 214.10L0.60 215.64C0.27 215.84 0.07 216.18 0.07 216.58C0.07 217.05 0.27 217.31 0.60 217.51L3.28 219.05L3.28 235.58C3.28 238.06 3.21 238.93 3.81 239.46C4.42 240 5.55 240 6.49 240L21.01 240C22.42 240 24.03 240.13 24.16 238.53C24.36 236.92 24.36 235.25 24.23 233.51ZM53.14 202.86C52.47 194.76 45.58 193.02 41.56 193.02C41.02 193.02 39.82 193.02 37.75 193.02L33.86 193.02C30.52 193.02 30.45 193.09 30.45 196.37L30.45 236.79C30.45 238.39 30.32 239.87 31.92 240C34.00 240.13 37.28 240.20 37.88 239.60C38.15 239.33 38.35 238.53 38.35 237.32L38.35 226.82C38.35 224.67 38.01 223.07 40.29 222.80C40.62 222.73 41.63 222.67 43.17 222.67C44.37 222.60 45.31 222.47 45.98 222.20C50.19 220.59 53.00 216.84 53.20 212.36L53.20 207.88C53.20 204.73 53.20 203.06 53.14 202.86ZM45.64 211.16C45.24 213.83 42.83 215.51 40.29 215.10C39.08 214.90 38.48 214.23 38.41 213.16L38.41 207.88L38.35 207.88C38.35 202.32 37.61 200.78 41.16 201.05C46.11 201.45 46.24 206.60 45.64 211.16ZM67.06 236.59L67.06 196.97C67.06 194.69 67.33 193.22 65.52 193.02C64.25 192.95 60.23 192.82 59.56 193.49C59.29 193.76 59.16 194.76 59.16 196.37L59.16 236.25C59.16 238.13 58.96 239.80 60.77 239.93C61.44 240 62.37 240 63.64 240C66.92 240 67.06 239.93 67.06 236.59ZM95.63 223.94C95.63 223.00 95.10 222.47 94.16 222.40C92.62 222.33 91.08 222.33 89.68 222.40C88.27 222.40 87.94 222.87 87.80 224.34L87.80 228.02C87.74 230.50 86.00 232.44 83.92 232.30C81.85 232.17 80.84 230.30 80.64 228.62C80.51 227.82 80.51 226.95 80.51 226.01C80.44 220.79 80.44 214.37 80.51 206.60C80.51 204.93 80.38 203.39 81.71 201.92C82.38 201.18 83.19 200.78 84.12 200.78C86.00 200.78 87.67 202.52 87.80 205.07C87.87 209.28 87.54 209.55 89.41 209.68C90.82 209.75 92.15 209.75 93.56 209.68C95.17 209.68 95.63 209.28 95.70 207.68C95.77 205.67 96.10 200.45 94.10 198.04C91.89 195.43 89.95 193.89 88.34 193.29C87.80 193.09 87.14 193.02 86.53 192.95C85.66 192.95 84.26 192.89 82.32 192.95C81.65 192.95 80.91 193.09 80.04 193.42C75.69 195.03 72.88 199.44 73.01 203.53L73.08 230.03C73.08 232.24 73.48 233.98 74.49 235.25C81.38 244.62 93.69 240.87 95.50 231.50C95.77 230.16 95.84 227.69 95.63 223.94ZM111.09 219.45L103.87 219.45C103.13 219.45 102.46 219.45 101.86 219.39C101.19 219.32 100.72 218.92 100.65 218.38C100.45 216.64 100.45 215.10 100.65 213.63C100.79 213.16 101.19 212.90 101.72 212.76C102.26 212.69 102.86 212.69 103.53 212.69L118.59 212.69C120.13 212.69 120.73 212.76 121.13 213.10C121.53 213.36 121.60 213.90 121.60 215.17C121.60 216.44 121.60 217.31 121.53 217.92C121.47 218.99 121.07 219.32 119.79 219.45C119.53 219.45 118.92 219.45 117.99 219.45ZM145.29 217.65C143.62 215.71 138.40 211.49 137.13 209.82C135.12 207.54 134.32 205.13 134.65 202.59C135.12 198.84 139.20 198.11 140.81 201.65L141.48 203.39C141.75 204.13 142.28 204.46 143.08 204.46C144.69 204.46 146.43 204.13 148.24 203.53C148.91 203.26 149.24 202.86 149.11 202.05C148.44 196.43 144.02 189.87 134.18 192.35C129.90 193.42 126.62 197.17 126.22 202.39C125.88 206.87 127.36 210.95 130.57 214.44L136.59 220.39C140.07 223.94 141.48 224.54 141.41 228.49C141.41 230.30 140.07 232.04 138.47 232.44C136.79 232.84 135.45 232.10 134.38 230.23C134.05 229.56 133.92 229.16 133.71 228.36C133.65 227.89 133.51 227.62 133.51 227.49C133.11 226.08 132.64 225.68 131.31 225.75C130.57 225.75 129.03 225.95 126.82 226.28C125.42 226.48 125.62 228.15 125.75 229.16C126.08 231.37 127.02 233.71 128.63 236.19C129.16 236.99 130.03 237.72 131.17 238.46C133.05 239.60 135.25 240.13 137.80 240C142.35 239.73 143.62 240.20 146.63 236.65C148.10 234.91 149.04 232.97 149.31 230.83C149.98 225.95 148.71 221.53 145.29 217.65ZM177.15 196.30C177.15 193.15 177.01 193.15 173.87 193.15L157.81 193.15C156.27 193.15 155.46 193.02 154.93 193.49C154.73 193.69 154.53 194.09 154.53 194.63C154.46 196.16 154.46 197.70 154.53 199.11C154.59 200.45 155.06 200.78 156.40 200.85C156.67 200.92 157.20 200.92 157.94 200.92C159.28 200.92 160.62 200.92 161.29 201.65C161.89 202.32 161.89 203.19 161.89 205.47L161.89 236.32C161.89 238.33 161.62 239.93 163.36 240C164.97 240.07 166.64 240.07 168.38 240C169.99 239.87 169.79 238.33 169.79 235.92L169.79 206.14C169.79 203.53 169.72 202.39 170.52 201.65C171.33 200.85 172.73 200.92 174.07 200.92C175.27 200.92 176.21 200.92 176.75 200.45C176.95 200.18 177.08 199.78 177.08 199.18C177.15 198.64 177.15 197.64 177.15 196.30ZM205.46 227.35L205.39 205.20C205.39 201.65 204.52 197.84 201.71 195.23C198.90 192.55 195.55 191.81 190.27 192.62C189.40 192.75 188.66 193.09 187.86 193.69C183.97 196.50 182.10 199.85 182.23 203.79L182.23 228.89C182.23 231.03 182.57 232.77 183.37 234.24C187.66 242.28 198.76 242.81 204.05 234.31C204.39 233.71 204.65 233.17 204.72 232.57C205.26 229.83 205.46 228.09 205.46 227.35ZM196.62 230.10C195.42 232.77 191.54 232.71 190.47 229.96C190.20 229.43 190.13 228.42 190.13 227.08L190.13 205.27C190.13 204.20 190.13 203.53 190.20 203.12C190.67 199.71 195.62 199.31 196.69 202.59C196.89 203.26 197.02 203.99 197.02 204.93L197.02 227.55C197.02 228.62 196.89 229.49 196.62 230.10ZM234.37 236.32C232.56 229.23 231.36 224.67 230.75 222.53C230.35 220.86 230.55 219.45 231.49 218.32C232.76 216.71 233.43 215.10 233.43 213.56C233.50 207.41 233.50 203.46 233.43 201.65C233.30 197.90 230.62 194.76 227.01 193.89C224.86 193.29 222.92 193.02 221.25 193.09L217.70 193.09C213.82 193.09 211.88 192.95 211.28 193.55C210.94 193.89 210.81 194.89 210.81 196.57L210.81 236.12C210.81 238.33 210.54 239.93 212.35 240C213.96 240.07 215.56 240.07 217.10 240C218.98 239.93 218.71 238.39 218.71 236.39L218.71 226.95C218.77 224.88 218.64 223.07 220.58 222.80C222.52 222.53 222.86 224.27 223.12 225.54L224.40 230.97C225.07 233.58 225.53 235.38 225.73 236.39C226.14 238.26 226.34 239.80 227.81 240C230.02 240.13 232.03 240.13 233.83 239.93C234.57 239.87 234.97 239.26 234.84 238.59C234.77 237.99 234.64 237.19 234.37 236.32ZM226.00 210.95C226.00 211.09 225.94 211.36 225.87 211.76C225.33 214.23 222.99 215.71 220.51 215.10C219.38 214.77 218.84 214.10 218.84 212.96C218.84 212.83 218.77 210.95 218.77 208.01C218.77 202.46 218.04 200.65 221.79 201.12C222.05 201.18 222.32 201.25 222.79 201.32C225.00 201.85 225.87 202.79 226.00 204.93ZM259.67 233.51C259.46 231.97 258.13 232.17 256.12 232.10L249.56 232.10C247.35 232.04 246.75 231.37 246.62 229.23C246.55 227.15 246.55 225.34 246.68 223.74C246.82 220.86 247.49 220.53 250.03 220.53C251.97 220.53 253.51 220.53 254.51 220.46C255.45 220.39 255.98 219.92 255.98 218.99C256.12 217.58 256.12 216.18 256.05 214.77C255.98 213.16 255.58 212.69 253.98 212.69C253.51 212.63 252.71 212.63 251.63 212.63C249.56 212.63 248.09 212.69 247.28 211.96C246.95 211.56 246.68 210.89 246.68 210.02C246.55 207.88 246.55 205.67 246.62 203.39C246.75 201.32 247.35 200.65 249.56 200.58L256.19 200.58C258.13 200.58 259.53 200.72 259.67 199.11C259.80 197.57 259.87 194.22 259.26 193.62C258.93 193.35 258.06 193.15 256.52 193.15L242.06 193.15C238.79 193.15 238.72 193.29 238.72 196.63L238.72 235.58C238.72 238.06 238.65 238.93 239.25 239.46C239.86 240 240.99 240 241.93 240L256.45 240C257.86 240 259.46 240.13 259.60 238.53C259.80 236.92 259.80 235.25 259.67 233.51Z" fill="#9768D1" style="fill: rgb(151, 104, 209);"></path></g><g id="SvgjsG2747" rel="mainfill" name="symbol" xmlns:name="symbol_mainfill" transform="translate(89.84506645202636,-15.377233886718754) scale(0.8)" fill="#9768D1"><path d="m29.018573 62.605093c-1.981213 1.449335-2.412385 4.230341-.96305 6.211553 1.449334 1.981211 4.23034 2.412384 6.211552.96305 1.981212-1.449335 2.412385-4.230342.963051-6.211553-1.449334-1.981212-4.230341-2.412384-6.211553-.96305z" fill="#9768D1" style="fill: rgb(151, 104, 209);"></path><path d="m31.747223 45.005704c-1.981212 1.449334-2.412384 4.23034-.96305 6.211552 1.449333 1.981212 4.230339 2.412384 6.211552.963049 1.981212-1.449334 2.412385-4.23034.96305-6.211552-1.449334-1.981212-4.230339-2.412384-6.211552-.963049z" fill="#9768D1" style="fill: rgb(151, 104, 209);"></path><path d="m34.475858 27.406293c-1.981214 1.449334-2.412386 4.23034-.963052 6.211552 1.449335 1.981212 4.230341 2.412384 6.211553.96305 1.981212-1.449335 2.412384-4.23034.96305-6.211553-1.449333-1.981211-4.230339-2.412383-6.211551-.963049z" fill="#9768D1" style="fill: rgb(151, 104, 209);"></path><path d="m14.147815 42.277051c-1.981212 1.449334-2.412384 4.23034-.96305 6.211552 1.449334 1.981212 4.230339 2.412384 6.211552.96305 1.981213-1.449335 2.412385-4.230341.963051-6.211553-1.449334-1.981212-4.23034-2.412383-6.211553-.963049z" fill="#9768D1" style="fill: rgb(151, 104, 209);"></path><path d="m86.981757 31.723252c-1.733925-2.450904-4.827189-3.767284-7.938789-3.088536-8.771243 1.91331-26.313711 5.740015-26.313711 5.740015l-8.779396-12.001267c-2.507144-3.427216-7.340436-4.176577-10.767651-1.669435l-25.0302844 18.310632c-3.4272148 2.507142-4.1765791 7.340434-1.6694356 10.76765l18.310632 25.030286c2.50714 3.427212 7.340436 4.176576 10.767651 1.669435l12.324064-9.015536 1.581617 7.248502c.905252 4.148739 5.020879 6.790274 9.169667 5.885332l30.300088-6.609123c4.14881-.904945 6.791131-5.02147 5.886143-9.170261-2.203142-10.100007-6.609123-30.300087-6.609123-30.300087-.226238-1.037204-.653497-1.980641-1.231472-2.797607zm-1.145009.801423c.471724.669265.820025 1.442493 1.005941 2.294794 2.20322 10.100304 4.406501 20.200598 6.609718 30.3009.743661 3.409202-1.40559 6.756674-4.814805 7.500298l-30.300089 6.60912c-3.409217.743625-6.757487-1.405-7.501112-4.814211l-6.609121-30.300084c-.743627-3.409216 1.404996-6.757487 4.81421-7.501112l30.300086-6.609122c2.556912-.55772 5.079996.511622 6.49517 2.519414zm-43.018712-9.323233l8.412993 11.500401-2.488959.542593c-4.148911.904461-6.790364 5.020892-5.885332 9.169666l4.701805 21.553572-12.825744 9.382533c-2.816257 2.060201-6.747649 1.45067-8.807849-1.365585l-18.3106318-25.030284c-2.0602035-2.816259-1.4506722-6.747646 1.3655845-8.807848l25.0302853-18.310632c2.816256-2.060202 6.747644-1.450675 8.807848 1.365584z" fill="#9768D1" style="fill: rgb(151, 104, 209);"></path><path d="m58.272422 65.26347c-2.398351.523163-3.918486 2.891514-3.395329 5.289858.523164 2.398347 2.891514 3.918487 5.289863 3.395328 2.398345-.523164 3.918486-2.891514 3.395323-5.28986-.52316-2.398349-2.891515-3.918486-5.289857-3.395326z" fill="#9768D1" style="fill: rgb(151, 104, 209);"></path><path d="m82.880447 59.895621c-2.398346.523164-3.918486 2.891513-3.395325 5.28986.523161 2.398348 2.891515 3.918488 5.289859 3.395324 2.39835-.523159 3.918485-2.891513 3.395327-5.289856-.523163-2.398352-2.891513-3.918487-5.289861-3.395328z" fill="#9768D1" style="fill: rgb(151, 104, 209);"></path><path d="m77.512602 35.287598c-2.39835.52316-3.918486 2.891513-3.395325 5.28986.52316 2.398348 2.891513 3.918487 5.289859 3.395324 2.398349-.52316 3.918485-2.891513 3.395324-5.289861-.52316-2.398347-2.891511-3.918482-5.289858-3.395323z" fill="#9768D1" style="fill: rgb(151, 104, 209);"></path><path d="m52.904573 40.655444c-2.398347.523163-3.918487 2.891514-3.395323 5.28986.523159 2.398349 2.891513 3.918487 5.289859 3.39533 2.398345-.523164 3.918486-2.891514 3.395327-5.289863-.523168-2.398349-2.891515-3.918487-5.289863-3.395327z" fill="#9768D1" style="fill: rgb(151, 104, 209);"></path></g></svg>